solid AsVerloopStuk
facet normal 0.0 1.0 0.0
  outer loop
    vertex 16.5 19.8 7.0
    vertex 18.300000000000004 19.8 0.0
    vertex 16.5 19.8 0.0
  endloop
endfacet
facet normal 0.0 1.0 0.0
  outer loop
    vertex 18.300000000000004 19.8 0.0
    vertex 16.5 19.8 7.0
    vertex 18.300000000000004 19.8 7.0
  endloop
endfacet
facet normal 0.0 0.9863939238321439 0.164398987305357
  outer loop
    vertex 16.5 19.3 10.0
    vertex 18.300000000000004 19.8 7.0
    vertex 16.5 19.8 7.0
  endloop
endfacet
facet normal 0.0 0.9863939238321439 0.164398987305357
  outer loop
    vertex 18.300000000000004 19.8 7.0
    vertex 16.5 19.3 10.0
    vertex 18.300000000000004 19.3 10.0
  endloop
endfacet
facet normal 1.0 0.0 0.0
  outer loop
    vertex 18.300000000000004 19.8 0.0
    vertex 18.300000000000004 18.300000000000004 7.0
    vertex 18.300000000000004 18.300000000000004 0.0
  endloop
endfacet
facet normal 1.0 0.0 0.0
  outer loop
    vertex 18.300000000000004 18.300000000000004 7.0
    vertex 18.300000000000004 19.8 0.0
    vertex 18.300000000000004 19.3 10.0
  endloop
endfacet
facet normal 1.0 0.0 0.0
  outer loop
    vertex 18.300000000000004 19.3 10.0
    vertex 18.300000000000004 19.8 0.0
    vertex 18.300000000000004 19.8 7.0
  endloop
endfacet
facet normal -1.0 0.0 0.0
  outer loop
    vertex 16.5 19.3 10.0
    vertex 16.5 18.300000000000004 0.0
    vertex 16.5 18.300000000000004 7.0
  endloop
endfacet
facet normal -1.0 0.0 0.0
  outer loop
    vertex 16.5 18.300000000000004 0.0
    vertex 16.5 19.3 10.0
    vertex 16.5 19.8 0.0
  endloop
endfacet
facet normal -1.0 0.0 0.0
  outer loop
    vertex 16.5 19.8 0.0
    vertex 16.5 19.3 10.0
    vertex 16.5 19.8 7.0
  endloop
endfacet
facet normal 0.5773502691896258 0.5773502691896266 -0.577350269189625
  outer loop
    vertex 20.3 19.3 10.0
    vertex 19.8 18.300000000000004 8.5
    vertex 18.300000000000004 18.300000000000004 7.0
  endloop
endfacet
facet normal 0.0 1.0 0.0
  outer loop
    vertex 15.0 18.300000000000004 8.5
    vertex 16.5 18.300000000000004 0.0
    vertex 15.0 18.300000000000004 0.0
  endloop
endfacet
facet normal 0.0 1.0 0.0
  outer loop
    vertex 16.5 18.300000000000004 0.0
    vertex 15.0 18.300000000000004 8.5
    vertex 16.5 18.300000000000004 7.0
  endloop
endfacet
facet normal 0.0 0.948683298050514 -0.3162277660168374
  outer loop
    vertex 16.5 19.3 10.0
    vertex 16.5 18.300000000000004 7.0
    vertex 14.500000000000002 19.3 10.0
  endloop
endfacet
facet normal -0.5773502691896248 0.5773502691896275 -0.5773502691896251
  outer loop
    vertex 14.500000000000002 19.3 10.0
    vertex 16.5 18.300000000000004 7.0
    vertex 15.0 18.300000000000004 8.5
  endloop
endfacet
facet normal -0.5773502691896264 -0.5773502691896253 -0.5773502691896255
  outer loop
    vertex 15.0 16.5 8.5
    vertex 16.5 16.499999999999996 7.0
    vertex 14.500000000000002 15.5 10.0
  endloop
endfacet
facet normal 0.0 1.0 0.0
  outer loop
    vertex 18.300000000000004 18.300000000000004 7.0
    vertex 19.8 18.300000000000004 0.0
    vertex 18.300000000000004 18.300000000000004 0.0
  endloop
endfacet
facet normal 0.0 1.0 0.0
  outer loop
    vertex 19.8 18.300000000000004 0.0
    vertex 18.300000000000004 18.300000000000004 7.0
    vertex 19.8 18.300000000000004 8.5
  endloop
endfacet
facet normal 0.0 -0.948683298050514 -0.31622776601683744
  outer loop
    vertex 14.500000000000002 15.5 10.0
    vertex 16.5 16.499999999999996 7.0
    vertex 16.5 15.5 10.0
  endloop
endfacet
facet normal -1.0213899218575545e-15 -1.0 -1.6280218868317757e-16
  outer loop
    vertex 16.5 16.499999999999996 7.0
    vertex 15.0 16.5 0.0
    vertex 16.5 16.5 0.0
  endloop
endfacet
facet normal -1.0213899218575545e-15 -1.0 -1.6280218868317757e-16
  outer loop
    vertex 15.0 16.5 0.0
    vertex 16.5 16.499999999999996 7.0
    vertex 15.0 16.5 8.5
  endloop
endfacet
facet normal 1.0 0.0 0.0
  outer loop
    vertex 19.8 18.300000000000004 0.0
    vertex 19.8 16.5 8.5
    vertex 19.8 16.5 0.0
  endloop
endfacet
facet normal 1.0 0.0 0.0
  outer loop
    vertex 19.8 16.5 8.5
    vertex 19.8 18.300000000000004 0.0
    vertex 19.8 18.300000000000004 8.5
  endloop
endfacet
facet normal -1.0 0.0 0.0
  outer loop
    vertex 15.0 18.300000000000004 8.5
    vertex 15.0 16.5 0.0
    vertex 15.0 16.5 8.5
  endloop
endfacet
facet normal -1.0 0.0 0.0
  outer loop
    vertex 15.0 16.5 0.0
    vertex 15.0 18.300000000000004 8.5
    vertex 15.0 18.300000000000004 0.0
  endloop
endfacet
facet normal 0.0 -0.948683298050514 -0.3162277660168374
  outer loop
    vertex 18.300000000000004 15.5 10.0
    vertex 18.300000000000004 16.499999999999996 7.0
    vertex 20.3 15.5 10.0
  endloop
endfacet
facet normal 0.5773502691896273 -0.5773502691896246 -0.5773502691896255
  outer loop
    vertex 19.8 16.5 8.5
    vertex 20.3 15.5 10.0
    vertex 18.300000000000004 16.499999999999996 7.0
  endloop
endfacet
facet normal -1.1148980862959885e-16 0.948683298050514 -0.3162277660168373
  outer loop
    vertex 20.3 19.3 10.0
    vertex 18.300000000000004 18.300000000000004 7.0
    vertex 18.300000000000004 19.3 10.0
  endloop
endfacet
facet normal 1.0213899218575564e-15 -1.0 -1.6280218868317754e-16
  outer loop
    vertex 19.8 16.5 8.5
    vertex 18.300000000000004 16.5 0.0
    vertex 19.8 16.5 0.0
  endloop
endfacet
facet normal 1.0213899218575564e-15 -1.0 -1.6280218868317754e-16
  outer loop
    vertex 18.300000000000004 16.5 0.0
    vertex 19.8 16.5 8.5
    vertex 18.300000000000004 16.499999999999996 7.0
  endloop
endfacet
facet normal 0.0 0.0 -1.0
  outer loop
    vertex 19.8 18.300000000000004 0.0
    vertex 18.300000000000004 16.5 0.0
    vertex 18.300000000000004 18.300000000000004 0.0
  endloop
endfacet
facet normal 0.0 0.0 -1.0
  outer loop
    vertex 18.300000000000004 16.5 0.0
    vertex 19.8 18.300000000000004 0.0
    vertex 19.8 16.5 0.0
  endloop
endfacet
facet normal 0.0 0.0 -1.0
  outer loop
    vertex 18.300000000000004 19.8 0.0
    vertex 16.5 18.300000000000004 0.0
    vertex 16.5 19.8 0.0
  endloop
endfacet
facet normal 0.0 0.0 -1.0
  outer loop
    vertex 16.5 18.300000000000004 0.0
    vertex 18.300000000000004 19.8 0.0
    vertex 16.5 16.5 0.0
  endloop
endfacet
facet normal 0.0 0.0 -1.0
  outer loop
    vertex 16.5 16.5 0.0
    vertex 18.300000000000004 19.8 0.0
    vertex 16.5 15.0 0.0
  endloop
endfacet
facet normal 0.0 0.0 -1.0
  outer loop
    vertex 16.5 15.0 0.0
    vertex 18.300000000000004 19.8 0.0
    vertex 18.300000000000004 15.0 0.0
  endloop
endfacet
facet normal 0.0 0.0 -1.0
  outer loop
    vertex 18.300000000000004 15.0 0.0
    vertex 18.300000000000004 19.8 0.0
    vertex 18.300000000000004 18.300000000000004 0.0
  endloop
endfacet
facet normal 0.0 0.0 -1.0
  outer loop
    vertex 18.300000000000004 15.0 0.0
    vertex 18.300000000000004 18.300000000000004 0.0
    vertex 18.300000000000004 16.5 0.0
  endloop
endfacet
facet normal 0.0 0.0 -1.0
  outer loop
    vertex 16.5 18.300000000000004 0.0
    vertex 15.0 16.5 0.0
    vertex 15.0 18.300000000000004 0.0
  endloop
endfacet
facet normal 0.0 0.0 -1.0
  outer loop
    vertex 15.0 16.5 0.0
    vertex 16.5 18.300000000000004 0.0
    vertex 16.5 16.5 0.0
  endloop
endfacet
facet normal 1.0 0.0 0.0
  outer loop
    vertex 18.300000000000004 16.5 0.0
    vertex 18.300000000000004 15.0 7.0
    vertex 18.300000000000004 15.0 0.0
  endloop
endfacet
facet normal 1.0 0.0 0.0
  outer loop
    vertex 18.300000000000004 15.0 7.0
    vertex 18.300000000000004 16.5 0.0
    vertex 18.300000000000004 15.5 10.0
  endloop
endfacet
facet normal 1.0 0.0 0.0
  outer loop
    vertex 18.300000000000004 15.5 10.0
    vertex 18.300000000000004 16.5 0.0
    vertex 18.300000000000004 16.499999999999996 7.0
  endloop
endfacet
facet normal -0.948683298050514 5.004439427908914e-18 -0.3162277660168374
  outer loop
    vertex 14.500000000000002 19.3 10.0
    vertex 15.0 16.5 8.5
    vertex 14.500000000000002 15.5 10.0
  endloop
endfacet
facet normal -0.948683298050514 5.004439427908914e-18 -0.3162277660168374
  outer loop
    vertex 15.0 16.5 8.5
    vertex 14.500000000000002 19.3 10.0
    vertex 15.0 18.300000000000004 8.5
  endloop
endfacet
facet normal 0.0 -0.9863939238321439 0.164398987305357
  outer loop
    vertex 18.300000000000004 15.5 10.0
    vertex 16.5 15.0 7.0
    vertex 18.300000000000004 15.0 7.0
  endloop
endfacet
facet normal 0.0 -0.9863939238321439 0.164398987305357
  outer loop
    vertex 16.5 15.0 7.0
    vertex 18.300000000000004 15.5 10.0
    vertex 16.5 15.5 10.0
  endloop
endfacet
facet normal -1.0 0.0 0.0
  outer loop
    vertex 16.5 15.5 10.0
    vertex 16.5 15.0 0.0
    vertex 16.5 15.0 7.0
  endloop
endfacet
facet normal -1.0 0.0 0.0
  outer loop
    vertex 16.5 15.0 0.0
    vertex 16.5 15.5 10.0
    vertex 16.5 16.5 0.0
  endloop
endfacet
facet normal -1.0 0.0 0.0
  outer loop
    vertex 16.5 16.5 0.0
    vertex 16.5 15.5 10.0
    vertex 16.5 16.499999999999996 7.0
  endloop
endfacet
facet normal 0.0 -1.0 0.0
  outer loop
    vertex 18.300000000000004 15.0 7.0
    vertex 16.5 15.0 0.0
    vertex 18.300000000000004 15.0 0.0
  endloop
endfacet
facet normal 0.0 -1.0 0.0
  outer loop
    vertex 16.5 15.0 0.0
    vertex 18.300000000000004 15.0 7.0
    vertex 16.5 15.0 7.0
  endloop
endfacet
facet normal 0.0 0.0 1.0
  outer loop
    vertex 14.500000000000002 15.5 10.0
    vertex 14.606820659272497 17.204681873516453 10.0
    vertex 14.500000000000002 19.3 10.0
  endloop
endfacet
facet normal 0.0 0.0 1.0
  outer loop
    vertex 14.606820659272497 17.204681873516453 10.0
    vertex 14.500000000000002 15.5 10.0
    vertex 14.627249407523603 17.01031531731182 10.0
  endloop
endfacet
facet normal 0.0 0.0 1.0
  outer loop
    vertex 14.627249407523603 17.01031531731182 10.0
    vertex 14.500000000000002 15.5 10.0
    vertex 14.661186717945345 16.817847265710277 10.0
  endloop
endfacet
facet normal 0.0 0.0 1.0
  outer loop
    vertex 14.661186717945345 16.817847265710277 10.0
    vertex 14.500000000000002 15.5 10.0
    vertex 14.708467251372708 16.62821540371241 10.0
  endloop
endfacet
facet normal 0.0 0.0 1.0
  outer loop
    vertex 14.708467251372708 16.62821540371241 10.0
    vertex 14.500000000000002 15.5 10.0
    vertex 14.768860661799462 16.442343598688133 10.0
  endloop
endfacet
facet normal 0.0 0.0 1.0
  outer loop
    vertex 14.768860661799462 16.442343598688133 10.0
    vertex 14.500000000000002 15.5 10.0
    vertex 14.842072718600722 16.261137399387763 10.0
  endloop
endfacet
facet normal 0.0 0.0 1.0
  outer loop
    vertex 14.842072718600722 16.261137399387763 10.0
    vertex 14.500000000000002 15.5 10.0
    vertex 14.927746739995005 16.08547962419951 10.0
  endloop
endfacet
facet normal 0.0 0.0 1.0
  outer loop
    vertex 14.927746739995005 16.08547962419951 10.0
    vertex 14.500000000000002 15.5 10.0
    vertex 15.025465330762009 15.916226060147032 10.0
  endloop
endfacet
facet normal 0.0 0.0 1.0
  outer loop
    vertex 15.025465330762009 15.916226060147032 10.0
    vertex 14.500000000000002 15.5 10.0
    vertex 15.134752415750151 15.754201293581081 10.0
  endloop
endfacet
facet normal 0.0 0.0 1.0
  outer loop
    vertex 15.134752415750151 15.754201293581081 10.0
    vertex 14.500000000000002 15.5 10.0
    vertex 15.177099107363112 15.700000000000005 10.0
  endloop
endfacet
facet normal 0.0 0.0 1.0
  outer loop
    vertex 15.177099107363112 15.700000000000005 10.0
    vertex 14.500000000000002 15.5 10.0
    vertex 16.5 15.5 10.0
  endloop
endfacet
facet normal 0.0 0.0 1.0
  outer loop
    vertex 14.500000000000002 19.3 10.0
    vertex 14.606820659272497 17.204681873516453 10.0
    vertex 14.600000000000001 17.400000000000006 10.0
  endloop
endfacet
facet normal 0.0 0.0 1.0
  outer loop
    vertex 15.177099107363112 15.700000000000005 10.0
    vertex 16.5 15.5 10.0
    vertex 19.622900892636892 15.700000000000005 10.0
  endloop
endfacet
facet normal 0.0 0.0 1.0
  outer loop
    vertex 19.622900892636892 15.700000000000005 10.0
    vertex 16.5 15.5 10.0
    vertex 18.300000000000004 15.5 10.0
  endloop
endfacet
facet normal 0.0 0.0 1.0
  outer loop
    vertex 19.622900892636892 15.700000000000005 10.0
    vertex 18.300000000000004 15.5 10.0
    vertex 20.3 15.5 10.0
  endloop
endfacet
facet normal 0.0 0.0 1.0
  outer loop
    vertex 19.622900892636892 15.700000000000005 10.0
    vertex 20.3 15.5 10.0
    vertex 19.665247584249855 15.754201293581081 10.0
  endloop
endfacet
facet normal 0.0 0.0 1.0
  outer loop
    vertex 19.665247584249855 15.754201293581081 10.0
    vertex 20.3 15.5 10.0
    vertex 19.774534669237994 15.916226060147032 10.0
  endloop
endfacet
facet normal 0.0 0.0 1.0
  outer loop
    vertex 19.774534669237994 15.916226060147032 10.0
    vertex 20.3 15.5 10.0
    vertex 19.872253260005 16.08547962419951 10.0
  endloop
endfacet
facet normal 0.0 0.0 1.0
  outer loop
    vertex 19.872253260005 16.08547962419951 10.0
    vertex 20.3 15.5 10.0
    vertex 19.957927281399282 16.261137399387763 10.0
  endloop
endfacet
facet normal 0.0 0.0 1.0
  outer loop
    vertex 19.957927281399282 16.261137399387763 10.0
    vertex 20.3 15.5 10.0
    vertex 20.031139338200543 16.442343598688133 10.0
  endloop
endfacet
facet normal 0.0 0.0 1.0
  outer loop
    vertex 20.031139338200543 16.442343598688133 10.0
    vertex 20.3 15.5 10.0
    vertex 20.091532748627298 16.62821540371241 10.0
  endloop
endfacet
facet normal 0.0 0.0 1.0
  outer loop
    vertex 20.091532748627298 16.62821540371241 10.0
    vertex 20.3 15.5 10.0
    vertex 20.13881328205466 16.817847265710277 10.0
  endloop
endfacet
facet normal 0.0 0.0 1.0
  outer loop
    vertex 20.13881328205466 16.817847265710277 10.0
    vertex 20.3 15.5 10.0
    vertex 20.1727505924764 17.01031531731182 10.0
  endloop
endfacet
facet normal 0.0 0.0 1.0
  outer loop
    vertex 20.1727505924764 17.01031531731182 10.0
    vertex 20.3 15.5 10.0
    vertex 20.193179340727507 17.204681873516453 10.0
  endloop
endfacet
facet normal 0.0 0.0 1.0
  outer loop
    vertex 20.193179340727507 17.204681873516453 10.0
    vertex 20.3 15.5 10.0
    vertex 20.200000000000003 17.400000000000006 10.0
  endloop
endfacet
facet normal 0.0 0.0 1.0
  outer loop
    vertex 14.500000000000002 19.3 10.0
    vertex 15.177099107363112 19.100000000000005 10.0
    vertex 16.5 19.3 10.0
  endloop
endfacet
facet normal 0.0 0.0 1.0
  outer loop
    vertex 15.177099107363112 19.100000000000005 10.0
    vertex 14.500000000000002 19.3 10.0
    vertex 15.134752415750151 19.04579870641893 10.0
  endloop
endfacet
facet normal 0.0 0.0 1.0
  outer loop
    vertex 15.134752415750151 19.04579870641893 10.0
    vertex 14.500000000000002 19.3 10.0
    vertex 15.025465330762009 18.88377393985298 10.0
  endloop
endfacet
facet normal 0.0 0.0 1.0
  outer loop
    vertex 15.025465330762009 18.88377393985298 10.0
    vertex 14.500000000000002 19.3 10.0
    vertex 14.927746739995005 18.7145203758005 10.0
  endloop
endfacet
facet normal 0.0 0.0 1.0
  outer loop
    vertex 14.927746739995005 18.7145203758005 10.0
    vertex 14.500000000000002 19.3 10.0
    vertex 14.842072718600717 18.538862600612244 10.0
  endloop
endfacet
facet normal 0.0 0.0 1.0
  outer loop
    vertex 14.842072718600717 18.538862600612244 10.0
    vertex 14.500000000000002 19.3 10.0
    vertex 14.768860661799462 18.35765640131188 10.0
  endloop
endfacet
facet normal 0.0 0.0 1.0
  outer loop
    vertex 14.768860661799462 18.35765640131188 10.0
    vertex 14.500000000000002 19.3 10.0
    vertex 14.708467251372708 18.1717845962876 10.0
  endloop
endfacet
facet normal 0.0 0.0 1.0
  outer loop
    vertex 14.708467251372708 18.1717845962876 10.0
    vertex 14.500000000000002 19.3 10.0
    vertex 14.661186717945345 17.98215273428973 10.0
  endloop
endfacet
facet normal 0.0 0.0 1.0
  outer loop
    vertex 14.661186717945345 17.98215273428973 10.0
    vertex 14.500000000000002 19.3 10.0
    vertex 14.627249407523603 17.789684682688186 10.0
  endloop
endfacet
facet normal 0.0 0.0 1.0
  outer loop
    vertex 14.627249407523603 17.789684682688186 10.0
    vertex 14.500000000000002 19.3 10.0
    vertex 14.606820659272497 17.59531812648356 10.0
  endloop
endfacet
facet normal 0.0 0.0 1.0
  outer loop
    vertex 14.606820659272497 17.59531812648356 10.0
    vertex 14.500000000000002 19.3 10.0
    vertex 14.600000000000001 17.400000000000006 10.0
  endloop
endfacet
facet normal 0.0 0.0 1.0
  outer loop
    vertex 16.5 19.3 10.0
    vertex 15.177099107363112 19.100000000000005 10.0
    vertex 19.622900892636892 19.100000000000005 10.0
  endloop
endfacet
facet normal 0.0 0.0 1.0
  outer loop
    vertex 16.5 19.3 10.0
    vertex 19.622900892636892 19.100000000000005 10.0
    vertex 18.300000000000004 19.3 10.0
  endloop
endfacet
facet normal 0.0 0.0 1.0
  outer loop
    vertex 18.300000000000004 19.3 10.0
    vertex 19.622900892636892 19.100000000000005 10.0
    vertex 20.3 19.3 10.0
  endloop
endfacet
facet normal 0.0 0.0 1.0
  outer loop
    vertex 20.3 19.3 10.0
    vertex 19.622900892636892 19.100000000000005 10.0
    vertex 19.665247584249855 19.04579870641893 10.0
  endloop
endfacet
facet normal 0.0 0.0 1.0
  outer loop
    vertex 20.3 19.3 10.0
    vertex 19.665247584249855 19.04579870641893 10.0
    vertex 19.774534669237994 18.88377393985298 10.0
  endloop
endfacet
facet normal 0.0 0.0 1.0
  outer loop
    vertex 20.3 19.3 10.0
    vertex 19.774534669237994 18.88377393985298 10.0
    vertex 19.872253260005 18.7145203758005 10.0
  endloop
endfacet
facet normal 0.0 0.0 1.0
  outer loop
    vertex 20.3 19.3 10.0
    vertex 19.872253260005 18.7145203758005 10.0
    vertex 19.957927281399282 18.538862600612244 10.0
  endloop
endfacet
facet normal 0.0 0.0 1.0
  outer loop
    vertex 20.3 19.3 10.0
    vertex 19.957927281399282 18.538862600612244 10.0
    vertex 20.031139338200543 18.35765640131188 10.0
  endloop
endfacet
facet normal 0.0 0.0 1.0
  outer loop
    vertex 20.3 19.3 10.0
    vertex 20.031139338200543 18.35765640131188 10.0
    vertex 20.091532748627298 18.1717845962876 10.0
  endloop
endfacet
facet normal 0.0 0.0 1.0
  outer loop
    vertex 20.3 19.3 10.0
    vertex 20.091532748627298 18.1717845962876 10.0
    vertex 20.13881328205466 17.98215273428973 10.0
  endloop
endfacet
facet normal 0.0 0.0 1.0
  outer loop
    vertex 20.3 19.3 10.0
    vertex 20.13881328205466 17.98215273428973 10.0
    vertex 20.1727505924764 17.789684682688186 10.0
  endloop
endfacet
facet normal 0.0 0.0 1.0
  outer loop
    vertex 20.3 19.3 10.0
    vertex 20.1727505924764 17.789684682688186 10.0
    vertex 20.193179340727507 17.595318126483555 10.0
  endloop
endfacet
facet normal 0.0 0.0 1.0
  outer loop
    vertex 20.3 19.3 10.0
    vertex 20.193179340727507 17.595318126483555 10.0
    vertex 20.200000000000003 17.400000000000006 10.0
  endloop
endfacet
facet normal 0.0 0.0 1.0
  outer loop
    vertex 20.3 19.3 10.0
    vertex 20.200000000000003 17.400000000000006 10.0
    vertex 20.3 15.5 10.0
  endloop
endfacet
facet normal 0.948683298050514 -5.004439427908644e-18 -0.31622776601683744
  outer loop
    vertex 19.8 16.5 8.5
    vertex 20.3 19.3 10.0
    vertex 20.3 15.5 10.0
  endloop
endfacet
facet normal 0.948683298050514 -5.004439427908644e-18 -0.31622776601683744
  outer loop
    vertex 20.3 19.3 10.0
    vertex 19.8 16.5 8.5
    vertex 19.8 18.300000000000004 8.5
  endloop
endfacet
facet normal 0.9510565162951483 0.30901699437496416 0.0
  outer loop
    vertex 20.031139338200543 18.35765640131188 10.0
    vertex 20.091532748627298 18.1717845962876 18.0
    vertex 20.091532748627298 18.1717845962876 10.0
  endloop
endfacet
facet normal 0.9510565162951483 0.30901699437496416 0.0
  outer loop
    vertex 20.091532748627298 18.1717845962876 18.0
    vertex 20.031139338200543 18.35765640131188 10.0
    vertex 20.031139338200543 18.35765640131188 18.0
  endloop
endfacet
facet normal 0.9993908270190952 0.03489949670251951 0.0
  outer loop
    vertex 20.193179340727507 17.595318126483555 10.0
    vertex 20.200000000000003 17.400000000000006 18.0
    vertex 20.200000000000003 17.400000000000006 10.0
  endloop
endfacet
facet normal 0.9993908270190952 0.03489949670251951 0.0
  outer loop
    vertex 20.200000000000003 17.400000000000006 18.0
    vertex 20.193179340727507 17.595318126483555 10.0
    vertex 20.193179340727507 17.595318126483555 18.0
  endloop
endfacet
facet normal 0.9702957262759956 0.24192189559967167 0.0
  outer loop
    vertex 20.091532748627298 18.1717845962876 10.0
    vertex 20.13881328205466 17.98215273428973 18.0
    vertex 20.13881328205466 17.98215273428973 10.0
  endloop
endfacet
facet normal 0.9702957262759956 0.24192189559967167 0.0
  outer loop
    vertex 20.13881328205466 17.98215273428973 18.0
    vertex 20.091532748627298 18.1717845962876 10.0
    vertex 20.091532748627298 18.1717845962876 18.0
  endloop
endfacet
facet normal 0.829037572555036 -0.5591929034707553 0.0
  outer loop
    vertex 19.774534669237994 15.916226060147032 10.0
    vertex 19.665247584249855 15.754201293581081 18.0
    vertex 19.665247584249855 15.754201293581081 10.0
  endloop
endfacet
facet normal 0.829037572555036 -0.5591929034707553 0.0
  outer loop
    vertex 19.665247584249855 15.754201293581081 18.0
    vertex 19.774534669237994 15.916226060147032 10.0
    vertex 19.774534669237994 15.916226060147032 18.0
  endloop
endfacet
facet normal 0.9848077530122082 -0.17364817766692955 0.0
  outer loop
    vertex 20.1727505924764 17.01031531731182 10.0
    vertex 20.13881328205466 16.817847265710277 18.0
    vertex 20.13881328205466 16.817847265710277 10.0
  endloop
endfacet
facet normal 0.9848077530122082 -0.17364817766692955 0.0
  outer loop
    vertex 20.13881328205466 16.817847265710277 18.0
    vertex 20.1727505924764 17.01031531731182 10.0
    vertex 20.1727505924764 17.01031531731182 18.0
  endloop
endfacet
facet normal 0.9271838545667868 -0.37460659341591407 0.0
  outer loop
    vertex 20.031139338200543 16.442343598688133 10.0
    vertex 19.957927281399282 16.261137399387763 18.0
    vertex 19.957927281399282 16.261137399387763 10.0
  endloop
endfacet
facet normal 0.9271838545667868 -0.37460659341591407 0.0
  outer loop
    vertex 19.957927281399282 16.261137399387763 18.0
    vertex 20.031139338200543 16.442343598688133 10.0
    vertex 20.031139338200543 16.442343598688133 18.0
  endloop
endfacet
facet normal 0.9702957262759956 -0.24192189559967167 0.0
  outer loop
    vertex 20.13881328205466 16.817847265710277 10.0
    vertex 20.091532748627298 16.62821540371241 18.0
    vertex 20.091532748627298 16.62821540371241 10.0
  endloop
endfacet
facet normal 0.9702957262759956 -0.24192189559967167 0.0
  outer loop
    vertex 20.091532748627298 16.62821540371241 18.0
    vertex 20.13881328205466 16.817847265710277 10.0
    vertex 20.13881328205466 16.817847265710277 18.0
  endloop
endfacet
facet normal 0.9848077530122082 0.17364817766692955 0.0
  outer loop
    vertex 20.13881328205466 17.98215273428973 10.0
    vertex 20.1727505924764 17.789684682688186 18.0
    vertex 20.1727505924764 17.789684682688186 10.0
  endloop
endfacet
facet normal 0.9848077530122082 0.17364817766692955 0.0
  outer loop
    vertex 20.1727505924764 17.789684682688186 18.0
    vertex 20.13881328205466 17.98215273428973 10.0
    vertex 20.13881328205466 17.98215273428973 18.0
  endloop
endfacet
facet normal 0.9993908270190952 -0.03489949670251951 0.0
  outer loop
    vertex 20.200000000000003 17.400000000000006 10.0
    vertex 20.193179340727507 17.204681873516453 18.0
    vertex 20.193179340727507 17.204681873516453 10.0
  endloop
endfacet
facet normal 0.9993908270190952 -0.03489949670251951 0.0
  outer loop
    vertex 20.193179340727507 17.204681873516453 18.0
    vertex 20.200000000000003 17.400000000000006 10.0
    vertex 20.200000000000003 17.400000000000006 18.0
  endloop
endfacet
facet normal 0.8987940462991748 -0.4383711467890617 0.0
  outer loop
    vertex 19.957927281399282 16.261137399387763 10.0
    vertex 19.872253260005 16.08547962419951 18.0
    vertex 19.872253260005 16.08547962419951 10.0
  endloop
endfacet
facet normal 0.8987940462991748 -0.4383711467890617 0.0
  outer loop
    vertex 19.872253260005 16.08547962419951 18.0
    vertex 19.957927281399282 16.261137399387763 10.0
    vertex 19.957927281399282 16.261137399387763 18.0
  endloop
endfacet
facet normal 0.9945218953682762 -0.10452846326762781 0.0
  outer loop
    vertex 20.193179340727507 17.204681873516453 10.0
    vertex 20.1727505924764 17.01031531731182 18.0
    vertex 20.1727505924764 17.01031531731182 10.0
  endloop
endfacet
facet normal 0.9945218953682762 -0.10452846326762781 0.0
  outer loop
    vertex 20.1727505924764 17.01031531731182 18.0
    vertex 20.193179340727507 17.204681873516453 10.0
    vertex 20.193179340727507 17.204681873516453 18.0
  endloop
endfacet
facet normal 0.9945218953682762 0.10452846326762781 0.0
  outer loop
    vertex 20.1727505924764 17.789684682688186 10.0
    vertex 20.193179340727507 17.595318126483555 18.0
    vertex 20.193179340727507 17.595318126483555 10.0
  endloop
endfacet
facet normal 0.9945218953682762 0.10452846326762781 0.0
  outer loop
    vertex 20.193179340727507 17.595318126483555 18.0
    vertex 20.1727505924764 17.789684682688186 10.0
    vertex 20.1727505924764 17.789684682688186 18.0
  endloop
endfacet
facet normal 0.9510565162951483 -0.30901699437496416 0.0
  outer loop
    vertex 20.091532748627298 16.62821540371241 10.0
    vertex 20.031139338200543 16.442343598688133 18.0
    vertex 20.031139338200543 16.442343598688133 10.0
  endloop
endfacet
facet normal 0.9510565162951483 -0.30901699437496416 0.0
  outer loop
    vertex 20.031139338200543 16.442343598688133 18.0
    vertex 20.091532748627298 16.62821540371241 10.0
    vertex 20.091532748627298 16.62821540371241 18.0
  endloop
endfacet
facet normal 0.8660254037844369 -0.500000000000003 0.0
  outer loop
    vertex 19.872253260005 16.08547962419951 10.0
    vertex 19.774534669237994 15.916226060147032 18.0
    vertex 19.774534669237994 15.916226060147032 10.0
  endloop
endfacet
facet normal 0.8660254037844369 -0.500000000000003 0.0
  outer loop
    vertex 19.774534669237994 15.916226060147032 18.0
    vertex 19.872253260005 16.08547962419951 10.0
    vertex 19.872253260005 16.08547962419951 18.0
  endloop
endfacet
facet normal 0.8987940462991748 0.4383711467890617 0.0
  outer loop
    vertex 19.872253260005 18.7145203758005 10.0
    vertex 19.957927281399282 18.538862600612244 18.0
    vertex 19.957927281399282 18.538862600612244 10.0
  endloop
endfacet
facet normal 0.8987940462991748 0.4383711467890617 0.0
  outer loop
    vertex 19.957927281399282 18.538862600612244 18.0
    vertex 19.872253260005 18.7145203758005 10.0
    vertex 19.872253260005 18.7145203758005 18.0
  endloop
endfacet
facet normal 0.9271838545667868 0.37460659341591407 0.0
  outer loop
    vertex 19.957927281399282 18.538862600612244 10.0
    vertex 20.031139338200543 18.35765640131188 18.0
    vertex 20.031139338200543 18.35765640131188 10.0
  endloop
endfacet
facet normal 0.9271838545667868 0.37460659341591407 0.0
  outer loop
    vertex 20.031139338200543 18.35765640131188 18.0
    vertex 19.957927281399282 18.538862600612244 10.0
    vertex 19.957927281399282 18.538862600612244 18.0
  endloop
endfacet
facet normal -0.9945218953682758 0.1045284632676293 0.0
  outer loop
    vertex 14.627249407523603 17.789684682688186 18.0
    vertex 14.606820659272497 17.59531812648356 10.0
    vertex 14.606820659272497 17.59531812648356 18.0
  endloop
endfacet
facet normal -0.9945218953682758 0.1045284632676293 0.0
  outer loop
    vertex 14.606820659272497 17.59531812648356 10.0
    vertex 14.627249407523603 17.789684682688186 18.0
    vertex 14.627249407523603 17.789684682688186 10.0
  endloop
endfacet
facet normal -0.0 -1.0 -0.0
  outer loop
    vertex 19.622900892636892 15.700000000000005 18.0
    vertex 15.177099107363112 15.700000000000005 10.0
    vertex 19.622900892636892 15.700000000000005 10.0
  endloop
endfacet
facet normal -0.0 -1.0 -0.0
  outer loop
    vertex 15.177099107363112 15.700000000000005 10.0
    vertex 19.622900892636892 15.700000000000005 18.0
    vertex 15.177099107363112 15.700000000000005 18.0
  endloop
endfacet
facet normal -0.9510565162951483 -0.30901699437496416 -0.0
  outer loop
    vertex 14.708467251372708 16.62821540371241 18.0
    vertex 14.768860661799462 16.442343598688133 10.0
    vertex 14.768860661799462 16.442343598688133 18.0
  endloop
endfacet
facet normal -0.9510565162951483 -0.30901699437496416 -0.0
  outer loop
    vertex 14.768860661799462 16.442343598688133 10.0
    vertex 14.708467251372708 16.62821540371241 18.0
    vertex 14.708467251372708 16.62821540371241 10.0
  endloop
endfacet
facet normal 0.829037572555036 0.5591929034707553 0.0
  outer loop
    vertex 19.665247584249855 19.04579870641893 10.0
    vertex 19.774534669237994 18.88377393985298 18.0
    vertex 19.774534669237994 18.88377393985298 10.0
  endloop
endfacet
facet normal 0.829037572555036 0.5591929034707553 0.0
  outer loop
    vertex 19.774534669237994 18.88377393985298 18.0
    vertex 19.665247584249855 19.04579870641893 10.0
    vertex 19.665247584249855 19.04579870641893 18.0
  endloop
endfacet
facet normal -0.7880107536067447 0.6156614753256292 0.0
  outer loop
    vertex 15.177099107363112 19.100000000000005 18.0
    vertex 15.134752415750151 19.04579870641893 10.0
    vertex 15.134752415750151 19.04579870641893 18.0
  endloop
endfacet
facet normal -0.7880107536067447 0.6156614753256292 0.0
  outer loop
    vertex 15.134752415750151 19.04579870641893 10.0
    vertex 15.177099107363112 19.100000000000005 18.0
    vertex 15.177099107363112 19.100000000000005 10.0
  endloop
endfacet
facet normal 0.8660254037844369 0.500000000000003 0.0
  outer loop
    vertex 19.774534669237994 18.88377393985298 10.0
    vertex 19.872253260005 18.7145203758005 18.0
    vertex 19.872253260005 18.7145203758005 10.0
  endloop
endfacet
facet normal 0.8660254037844369 0.500000000000003 0.0
  outer loop
    vertex 19.872253260005 18.7145203758005 18.0
    vertex 19.774534669237994 18.88377393985298 10.0
    vertex 19.774534669237994 18.88377393985298 18.0
  endloop
endfacet
facet normal -0.8987940462991748 -0.4383711467890617 -0.0
  outer loop
    vertex 14.842072718600722 16.261137399387763 18.0
    vertex 14.927746739995005 16.08547962419951 10.0
    vertex 14.927746739995005 16.08547962419951 18.0
  endloop
endfacet
facet normal -0.8987940462991748 -0.4383711467890617 -0.0
  outer loop
    vertex 14.927746739995005 16.08547962419951 10.0
    vertex 14.842072718600722 16.261137399387763 18.0
    vertex 14.842072718600722 16.261137399387763 10.0
  endloop
endfacet
facet normal -0.9271838545667868 -0.37460659341591407 -0.0
  outer loop
    vertex 14.768860661799462 16.442343598688133 18.0
    vertex 14.842072718600722 16.261137399387763 10.0
    vertex 14.842072718600722 16.261137399387763 18.0
  endloop
endfacet
facet normal -0.9271838545667868 -0.37460659341591407 -0.0
  outer loop
    vertex 14.842072718600722 16.261137399387763 10.0
    vertex 14.768860661799462 16.442343598688133 18.0
    vertex 14.768860661799462 16.442343598688133 10.0
  endloop
endfacet
facet normal -0.9702957262759956 0.24192189559967167 0.0
  outer loop
    vertex 14.708467251372708 18.1717845962876 18.0
    vertex 14.661186717945345 17.98215273428973 10.0
    vertex 14.661186717945345 17.98215273428973 18.0
  endloop
endfacet
facet normal -0.9702957262759956 0.24192189559967167 0.0
  outer loop
    vertex 14.661186717945345 17.98215273428973 10.0
    vertex 14.708467251372708 18.1717845962876 18.0
    vertex 14.708467251372708 18.1717845962876 10.0
  endloop
endfacet
facet normal -0.9848077530122082 0.17364817766692955 0.0
  outer loop
    vertex 14.661186717945345 17.98215273428973 18.0
    vertex 14.627249407523603 17.789684682688186 10.0
    vertex 14.627249407523603 17.789684682688186 18.0
  endloop
endfacet
facet normal -0.9848077530122082 0.17364817766692955 0.0
  outer loop
    vertex 14.627249407523603 17.789684682688186 10.0
    vertex 14.661186717945345 17.98215273428973 18.0
    vertex 14.661186717945345 17.98215273428973 10.0
  endloop
endfacet
facet normal -0.829037572555036 -0.5591929034707553 -0.0
  outer loop
    vertex 15.025465330762009 15.916226060147032 18.0
    vertex 15.134752415750151 15.754201293581081 10.0
    vertex 15.134752415750151 15.754201293581081 18.0
  endloop
endfacet
facet normal -0.829037572555036 -0.5591929034707553 -0.0
  outer loop
    vertex 15.134752415750151 15.754201293581081 10.0
    vertex 15.025465330762009 15.916226060147032 18.0
    vertex 15.025465330762009 15.916226060147032 10.0
  endloop
endfacet
facet normal -0.9848077530122082 -0.17364817766692955 -0.0
  outer loop
    vertex 14.627249407523603 17.01031531731182 18.0
    vertex 14.661186717945345 16.817847265710277 10.0
    vertex 14.661186717945345 16.817847265710277 18.0
  endloop
endfacet
facet normal -0.9848077530122082 -0.17364817766692955 -0.0
  outer loop
    vertex 14.661186717945345 16.817847265710277 10.0
    vertex 14.627249407523603 17.01031531731182 18.0
    vertex 14.627249407523603 17.01031531731182 10.0
  endloop
endfacet
facet normal 0.0 1.0 0.0
  outer loop
    vertex 15.177099107363112 19.100000000000005 18.0
    vertex 19.622900892636892 19.100000000000005 10.0
    vertex 15.177099107363112 19.100000000000005 10.0
  endloop
endfacet
facet normal 0.0 1.0 0.0
  outer loop
    vertex 19.622900892636892 19.100000000000005 10.0
    vertex 15.177099107363112 19.100000000000005 18.0
    vertex 19.622900892636892 19.100000000000005 18.0
  endloop
endfacet
facet normal -0.9945218953682762 -0.10452846326762781 -0.0
  outer loop
    vertex 14.606820659272497 17.204681873516453 18.0
    vertex 14.627249407523603 17.01031531731182 10.0
    vertex 14.627249407523603 17.01031531731182 18.0
  endloop
endfacet
facet normal -0.9945218953682762 -0.10452846326762781 -0.0
  outer loop
    vertex 14.627249407523603 17.01031531731182 10.0
    vertex 14.606820659272497 17.204681873516453 18.0
    vertex 14.606820659272497 17.204681873516453 10.0
  endloop
endfacet
facet normal -0.8660254037844369 -0.500000000000003 -0.0
  outer loop
    vertex 14.927746739995005 16.08547962419951 18.0
    vertex 15.025465330762009 15.916226060147032 10.0
    vertex 15.025465330762009 15.916226060147032 18.0
  endloop
endfacet
facet normal -0.8660254037844369 -0.500000000000003 -0.0
  outer loop
    vertex 15.025465330762009 15.916226060147032 10.0
    vertex 14.927746739995005 16.08547962419951 18.0
    vertex 14.927746739995005 16.08547962419951 10.0
  endloop
endfacet
facet normal 0.7880107536067447 0.6156614753256292 0.0
  outer loop
    vertex 19.622900892636892 19.100000000000005 10.0
    vertex 19.665247584249855 19.04579870641893 18.0
    vertex 19.665247584249855 19.04579870641893 10.0
  endloop
endfacet
facet normal 0.7880107536067447 0.6156614753256292 0.0
  outer loop
    vertex 19.665247584249855 19.04579870641893 18.0
    vertex 19.622900892636892 19.100000000000005 10.0
    vertex 19.622900892636892 19.100000000000005 18.0
  endloop
endfacet
facet normal -0.829037572555036 0.5591929034707553 0.0
  outer loop
    vertex 15.134752415750151 19.04579870641893 18.0
    vertex 15.025465330762009 18.88377393985298 10.0
    vertex 15.025465330762009 18.88377393985298 18.0
  endloop
endfacet
facet normal -0.829037572555036 0.5591929034707553 0.0
  outer loop
    vertex 15.025465330762009 18.88377393985298 10.0
    vertex 15.134752415750151 19.04579870641893 18.0
    vertex 15.134752415750151 19.04579870641893 10.0
  endloop
endfacet
facet normal 0.7880107536067447 -0.6156614753256292 0.0
  outer loop
    vertex 19.665247584249855 15.754201293581081 10.0
    vertex 19.622900892636892 15.700000000000005 18.0
    vertex 19.622900892636892 15.700000000000005 10.0
  endloop
endfacet
facet normal 0.7880107536067447 -0.6156614753256292 0.0
  outer loop
    vertex 19.622900892636892 15.700000000000005 18.0
    vertex 19.665247584249855 15.754201293581081 10.0
    vertex 19.665247584249855 15.754201293581081 18.0
  endloop
endfacet
facet normal -0.9702957262759956 -0.24192189559967167 -0.0
  outer loop
    vertex 14.661186717945345 16.817847265710277 18.0
    vertex 14.708467251372708 16.62821540371241 10.0
    vertex 14.708467251372708 16.62821540371241 18.0
  endloop
endfacet
facet normal -0.9702957262759956 -0.24192189559967167 -0.0
  outer loop
    vertex 14.708467251372708 16.62821540371241 10.0
    vertex 14.661186717945345 16.817847265710277 18.0
    vertex 14.661186717945345 16.817847265710277 10.0
  endloop
endfacet
facet normal -0.9993908270190952 -0.03489949670251951 -0.0
  outer loop
    vertex 14.600000000000001 17.400000000000006 18.0
    vertex 14.606820659272497 17.204681873516453 10.0
    vertex 14.606820659272497 17.204681873516453 18.0
  endloop
endfacet
facet normal -0.9993908270190952 -0.03489949670251951 -0.0
  outer loop
    vertex 14.606820659272497 17.204681873516453 10.0
    vertex 14.600000000000001 17.400000000000006 18.0
    vertex 14.600000000000001 17.400000000000006 10.0
  endloop
endfacet
facet normal -0.8660254037844369 0.500000000000003 0.0
  outer loop
    vertex 15.025465330762009 18.88377393985298 18.0
    vertex 14.927746739995005 18.7145203758005 10.0
    vertex 14.927746739995005 18.7145203758005 18.0
  endloop
endfacet
facet normal -0.8660254037844369 0.500000000000003 0.0
  outer loop
    vertex 14.927746739995005 18.7145203758005 10.0
    vertex 15.025465330762009 18.88377393985298 18.0
    vertex 15.025465330762009 18.88377393985298 10.0
  endloop
endfacet
facet normal -0.8987940462991634 0.43837114678908495 0.0
  outer loop
    vertex 14.927746739995005 18.7145203758005 18.0
    vertex 14.842072718600717 18.538862600612244 10.0
    vertex 14.842072718600717 18.538862600612244 18.0
  endloop
endfacet
facet normal -0.8987940462991634 0.43837114678908495 0.0
  outer loop
    vertex 14.842072718600717 18.538862600612244 10.0
    vertex 14.927746739995005 18.7145203758005 18.0
    vertex 14.927746739995005 18.7145203758005 10.0
  endloop
endfacet
facet normal -0.9510565162951483 0.30901699437496416 0.0
  outer loop
    vertex 14.768860661799462 18.35765640131188 18.0
    vertex 14.708467251372708 18.1717845962876 10.0
    vertex 14.708467251372708 18.1717845962876 18.0
  endloop
endfacet
facet normal -0.9510565162951483 0.30901699437496416 0.0
  outer loop
    vertex 14.708467251372708 18.1717845962876 10.0
    vertex 14.768860661799462 18.35765640131188 18.0
    vertex 14.768860661799462 18.35765640131188 10.0
  endloop
endfacet
facet normal -0.9993908270190952 0.034899496702519 0.0
  outer loop
    vertex 14.606820659272497 17.59531812648356 18.0
    vertex 14.600000000000001 17.400000000000006 10.0
    vertex 14.600000000000001 17.400000000000006 18.0
  endloop
endfacet
facet normal -0.9993908270190952 0.034899496702519 0.0
  outer loop
    vertex 14.600000000000001 17.400000000000006 10.0
    vertex 14.606820659272497 17.59531812648356 18.0
    vertex 14.606820659272497 17.59531812648356 10.0
  endloop
endfacet
facet normal -0.9271838545667966 0.37460659341588926 0.0
  outer loop
    vertex 14.842072718600717 18.538862600612244 18.0
    vertex 14.768860661799462 18.35765640131188 10.0
    vertex 14.768860661799462 18.35765640131188 18.0
  endloop
endfacet
facet normal -0.9271838545667966 0.37460659341588926 0.0
  outer loop
    vertex 14.768860661799462 18.35765640131188 10.0
    vertex 14.842072718600717 18.538862600612244 18.0
    vertex 14.842072718600717 18.538862600612244 10.0
  endloop
endfacet
facet normal -0.7880107536067447 -0.6156614753256292 -0.0
  outer loop
    vertex 15.134752415750151 15.754201293581081 18.0
    vertex 15.177099107363112 15.700000000000005 10.0
    vertex 15.177099107363112 15.700000000000005 18.0
  endloop
endfacet
facet normal -0.7880107536067447 -0.6156614753256292 -0.0
  outer loop
    vertex 15.177099107363112 15.700000000000005 10.0
    vertex 15.134752415750151 15.754201293581081 18.0
    vertex 15.134752415750151 15.754201293581081 10.0
  endloop
endfacet
facet normal 0.0 0.0 1.0
  outer loop
    vertex 14.606820659272497 17.204681873516453 18.0
    vertex 14.606820659272497 17.59531812648356 18.0
    vertex 14.600000000000001 17.400000000000006 18.0
  endloop
endfacet
facet normal 0.0 0.0 1.0
  outer loop
    vertex 14.606820659272497 17.59531812648356 18.0
    vertex 14.606820659272497 17.204681873516453 18.0
    vertex 14.627249407523603 17.01031531731182 18.0
  endloop
endfacet
facet normal 0.0 0.0 1.0
  outer loop
    vertex 14.606820659272497 17.59531812648356 18.0
    vertex 14.627249407523603 17.01031531731182 18.0
    vertex 14.627249407523603 17.789684682688186 18.0
  endloop
endfacet
facet normal 0.0 0.0 1.0
  outer loop
    vertex 14.627249407523603 17.789684682688186 18.0
    vertex 14.627249407523603 17.01031531731182 18.0
    vertex 14.661186717945345 16.817847265710277 18.0
  endloop
endfacet
facet normal 0.0 0.0 1.0
  outer loop
    vertex 14.627249407523603 17.789684682688186 18.0
    vertex 14.661186717945345 16.817847265710277 18.0
    vertex 14.661186717945345 17.98215273428973 18.0
  endloop
endfacet
facet normal 0.0 0.0 1.0
  outer loop
    vertex 14.661186717945345 17.98215273428973 18.0
    vertex 14.661186717945345 16.817847265710277 18.0
    vertex 14.708467251372708 16.62821540371241 18.0
  endloop
endfacet
facet normal 0.0 0.0 1.0
  outer loop
    vertex 14.661186717945345 17.98215273428973 18.0
    vertex 14.708467251372708 16.62821540371241 18.0
    vertex 14.708467251372708 18.1717845962876 18.0
  endloop
endfacet
facet normal 0.0 0.0 1.0
  outer loop
    vertex 14.708467251372708 18.1717845962876 18.0
    vertex 14.708467251372708 16.62821540371241 18.0
    vertex 14.768860661799462 16.442343598688133 18.0
  endloop
endfacet
facet normal 0.0 0.0 1.0
  outer loop
    vertex 14.708467251372708 18.1717845962876 18.0
    vertex 14.768860661799462 16.442343598688133 18.0
    vertex 14.768860661799462 18.35765640131188 18.0
  endloop
endfacet
facet normal 0.0 0.0 1.0
  outer loop
    vertex 14.768860661799462 18.35765640131188 18.0
    vertex 14.768860661799462 16.442343598688133 18.0
    vertex 14.842072718600722 16.261137399387763 18.0
  endloop
endfacet
facet normal 0.0 0.0 1.0
  outer loop
    vertex 14.768860661799462 18.35765640131188 18.0
    vertex 14.842072718600722 16.261137399387763 18.0
    vertex 14.842072718600717 18.538862600612244 18.0
  endloop
endfacet
facet normal 0.0 0.0 1.0
  outer loop
    vertex 14.842072718600717 18.538862600612244 18.0
    vertex 14.842072718600722 16.261137399387763 18.0
    vertex 14.927746739995005 18.7145203758005 18.0
  endloop
endfacet
facet normal 0.0 0.0 1.0
  outer loop
    vertex 14.927746739995005 18.7145203758005 18.0
    vertex 14.842072718600722 16.261137399387763 18.0
    vertex 14.927746739995005 16.08547962419951 18.0
  endloop
endfacet
facet normal 0.0 0.0 1.0
  outer loop
    vertex 14.927746739995005 18.7145203758005 18.0
    vertex 14.927746739995005 16.08547962419951 18.0
    vertex 15.025465330762009 15.916226060147032 18.0
  endloop
endfacet
facet normal 0.0 0.0 1.0
  outer loop
    vertex 14.927746739995005 18.7145203758005 18.0
    vertex 15.025465330762009 15.916226060147032 18.0
    vertex 15.025465330762009 18.88377393985298 18.0
  endloop
endfacet
facet normal 0.0 0.0 1.0
  outer loop
    vertex 15.025465330762009 18.88377393985298 18.0
    vertex 15.025465330762009 15.916226060147032 18.0
    vertex 15.134752415750151 15.754201293581081 18.0
  endloop
endfacet
facet normal 0.0 0.0 1.0
  outer loop
    vertex 15.025465330762009 18.88377393985298 18.0
    vertex 15.134752415750151 15.754201293581081 18.0
    vertex 15.134752415750151 19.04579870641893 18.0
  endloop
endfacet
facet normal 0.0 0.0 1.0
  outer loop
    vertex 15.134752415750151 19.04579870641893 18.0
    vertex 15.134752415750151 15.754201293581081 18.0
    vertex 15.177099107363112 15.700000000000005 18.0
  endloop
endfacet
facet normal 0.0 0.0 1.0
  outer loop
    vertex 15.134752415750151 19.04579870641893 18.0
    vertex 15.177099107363112 15.700000000000005 18.0
    vertex 15.177099107363112 19.100000000000005 18.0
  endloop
endfacet
facet normal 0.0 0.0 1.0
  outer loop
    vertex 15.177099107363112 19.100000000000005 18.0
    vertex 15.177099107363112 15.700000000000005 18.0
    vertex 19.622900892636892 15.700000000000005 18.0
  endloop
endfacet
facet normal 0.0 0.0 1.0
  outer loop
    vertex 15.177099107363112 19.100000000000005 18.0
    vertex 19.622900892636892 15.700000000000005 18.0
    vertex 19.622900892636892 19.100000000000005 18.0
  endloop
endfacet
facet normal 0.0 0.0 1.0
  outer loop
    vertex 19.622900892636892 19.100000000000005 18.0
    vertex 19.622900892636892 15.700000000000005 18.0
    vertex 19.665247584249855 15.754201293581081 18.0
  endloop
endfacet
facet normal 0.0 0.0 1.0
  outer loop
    vertex 19.622900892636892 19.100000000000005 18.0
    vertex 19.665247584249855 15.754201293581081 18.0
    vertex 19.665247584249855 19.04579870641893 18.0
  endloop
endfacet
facet normal 0.0 0.0 1.0
  outer loop
    vertex 19.665247584249855 19.04579870641893 18.0
    vertex 19.665247584249855 15.754201293581081 18.0
    vertex 19.774534669237994 15.916226060147032 18.0
  endloop
endfacet
facet normal 0.0 0.0 1.0
  outer loop
    vertex 19.665247584249855 19.04579870641893 18.0
    vertex 19.774534669237994 15.916226060147032 18.0
    vertex 19.774534669237994 18.88377393985298 18.0
  endloop
endfacet
facet normal 0.0 0.0 1.0
  outer loop
    vertex 19.774534669237994 18.88377393985298 18.0
    vertex 19.774534669237994 15.916226060147032 18.0
    vertex 19.872253260005 16.08547962419951 18.0
  endloop
endfacet
facet normal 0.0 0.0 1.0
  outer loop
    vertex 19.774534669237994 18.88377393985298 18.0
    vertex 19.872253260005 16.08547962419951 18.0
    vertex 19.872253260005 18.7145203758005 18.0
  endloop
endfacet
facet normal 0.0 0.0 1.0
  outer loop
    vertex 19.872253260005 18.7145203758005 18.0
    vertex 19.872253260005 16.08547962419951 18.0
    vertex 19.957927281399282 16.261137399387763 18.0
  endloop
endfacet
facet normal 0.0 0.0 1.0
  outer loop
    vertex 19.872253260005 18.7145203758005 18.0
    vertex 19.957927281399282 16.261137399387763 18.0
    vertex 19.957927281399282 18.538862600612244 18.0
  endloop
endfacet
facet normal 0.0 0.0 1.0
  outer loop
    vertex 19.957927281399282 18.538862600612244 18.0
    vertex 19.957927281399282 16.261137399387763 18.0
    vertex 20.031139338200543 16.442343598688133 18.0
  endloop
endfacet
facet normal 0.0 0.0 1.0
  outer loop
    vertex 19.957927281399282 18.538862600612244 18.0
    vertex 20.031139338200543 16.442343598688133 18.0
    vertex 20.031139338200543 18.35765640131188 18.0
  endloop
endfacet
facet normal 0.0 0.0 1.0
  outer loop
    vertex 20.031139338200543 18.35765640131188 18.0
    vertex 20.031139338200543 16.442343598688133 18.0
    vertex 20.091532748627298 16.62821540371241 18.0
  endloop
endfacet
facet normal 0.0 0.0 1.0
  outer loop
    vertex 20.031139338200543 18.35765640131188 18.0
    vertex 20.091532748627298 16.62821540371241 18.0
    vertex 20.091532748627298 18.1717845962876 18.0
  endloop
endfacet
facet normal 0.0 0.0 1.0
  outer loop
    vertex 20.091532748627298 18.1717845962876 18.0
    vertex 20.091532748627298 16.62821540371241 18.0
    vertex 20.13881328205466 16.817847265710277 18.0
  endloop
endfacet
facet normal 0.0 0.0 1.0
  outer loop
    vertex 20.091532748627298 18.1717845962876 18.0
    vertex 20.13881328205466 16.817847265710277 18.0
    vertex 20.13881328205466 17.98215273428973 18.0
  endloop
endfacet
facet normal 0.0 0.0 1.0
  outer loop
    vertex 20.13881328205466 17.98215273428973 18.0
    vertex 20.13881328205466 16.817847265710277 18.0
    vertex 20.1727505924764 17.01031531731182 18.0
  endloop
endfacet
facet normal 0.0 0.0 1.0
  outer loop
    vertex 20.13881328205466 17.98215273428973 18.0
    vertex 20.1727505924764 17.01031531731182 18.0
    vertex 20.1727505924764 17.789684682688186 18.0
  endloop
endfacet
facet normal 0.0 0.0 1.0
  outer loop
    vertex 20.1727505924764 17.789684682688186 18.0
    vertex 20.1727505924764 17.01031531731182 18.0
    vertex 20.193179340727507 17.204681873516453 18.0
  endloop
endfacet
facet normal 0.0 0.0 1.0
  outer loop
    vertex 20.1727505924764 17.789684682688186 18.0
    vertex 20.193179340727507 17.204681873516453 18.0
    vertex 20.193179340727507 17.595318126483555 18.0
  endloop
endfacet
facet normal 0.0 0.0 1.0
  outer loop
    vertex 20.193179340727507 17.595318126483555 18.0
    vertex 20.193179340727507 17.204681873516453 18.0
    vertex 20.200000000000003 17.400000000000006 18.0
  endloop
endfacet
endsolid AsVerloopStuk
