solid Buggy
facet normal 0.0 0.0 -1.0
  outer loop
    vertex 153.38452917440438 42.79011862473395 0.0
    vertex 153.32375767281894 41.601103043441725 0.0
    vertex 153.27587498813793 42.19961119407077 0.0
  endloop
endfacet
facet normal 0.0 0.0 -1.0
  outer loop
    vertex 153.32375767281894 41.601103043441725 0.0
    vertex 153.38452917440438 42.79011862473395 0.0
    vertex 153.52491410261626 41.035381514230714 0.0
  endloop
endfacet
facet normal 0.0 0.0 -1.0
  outer loop
    vertex 153.52491410261626 41.035381514230714 0.0
    vertex 153.38452917440438 42.79011862473395 0.0
    vertex 153.64231562838376 43.33238322989125 0.0
  endloop
endfacet
facet normal 0.0 0.0 -1.0
  outer loop
    vertex 153.52491410261626 41.035381514230714 0.0
    vertex 153.64231562838376 43.33238322989125 0.0
    vertex 153.86563579926596 40.54099959375442 0.0
  endloop
endfacet
facet normal 0.0 0.0 -1.0
  outer loop
    vertex 153.86563579926596 40.54099959375442 0.0
    vertex 153.64231562838376 43.33238322989125 0.0
    vertex 154.0316666292496 43.789450572835825 0.0
  endloop
endfacet
facet normal 0.0 0.0 -1.0
  outer loop
    vertex 153.86563579926596 40.54099959375442 0.0
    vertex 154.0316666292496 43.789450572835825 0.0
    vertex 154.32270314221051 40.15164859288856 0.0
  endloop
endfacet
facet normal 0.0 0.0 -1.0
  outer loop
    vertex 154.32270314221051 40.15164859288856 0.0
    vertex 154.0316666292496 43.789450572835825 0.0
    vertex 154.52604854972589 44.1301722694855 0.0
  endloop
endfacet
facet normal 0.0 0.0 -1.0
  outer loop
    vertex 154.32270314221051 40.15164859288856 0.0
    vertex 154.52604854972589 44.1301722694855 0.0
    vertex 154.8649677473678 39.8938621389092 0.0
  endloop
endfacet
facet normal 0.0 0.0 -1.0
  outer loop
    vertex 154.8649677473678 39.8938621389092 0.0
    vertex 154.52604854972589 44.1301722694855 0.0
    vertex 155.0917700789369 44.33132869928283 0.0
  endloop
endfacet
facet normal 0.0 0.0 -1.0
  outer loop
    vertex 154.8649677473678 39.8938621389092 0.0
    vertex 155.0917700789369 44.33132869928283 0.0
    vertex 155.455475178031 39.78520795264276 0.0
  endloop
endfacet
facet normal 0.0 0.0 -1.0
  outer loop
    vertex 155.455475178031 39.78520795264276 0.0
    vertex 155.0917700789369 44.33132869928283 0.0
    vertex 155.69027822956593 44.37921138396384 0.0
  endloop
endfacet
facet normal 0.0 0.0 -1.0
  outer loop
    vertex 155.455475178031 39.78520795264276 0.0
    vertex 155.69027822956593 44.37921138396384 0.0
    vertex 156.05398332866002 39.83309063732377 0.0
  endloop
endfacet
facet normal 0.0 0.0 -1.0
  outer loop
    vertex 156.05398332866002 39.83309063732377 0.0
    vertex 155.69027822956593 44.37921138396384 0.0
    vertex 156.28078566022913 44.2705571976974 0.0
  endloop
endfacet
facet normal 0.0 0.0 -1.0
  outer loop
    vertex 156.05398332866002 39.83309063732377 0.0
    vertex 156.28078566022913 44.2705571976974 0.0
    vertex 156.61970485787108 40.03424706712109 0.0
  endloop
endfacet
facet normal 0.0 0.0 -1.0
  outer loop
    vertex 156.61970485787108 40.03424706712109 0.0
    vertex 156.28078566022913 44.2705571976974 0.0
    vertex 156.82305026538646 44.01277074371803 0.0
  endloop
endfacet
facet normal 0.0 0.0 -1.0
  outer loop
    vertex 156.61970485787108 40.03424706712109 0.0
    vertex 156.82305026538646 44.01277074371803 0.0
    vertex 157.11408677834734 40.374968763770774 0.0
  endloop
endfacet
facet normal 0.0 0.0 -1.0
  outer loop
    vertex 157.11408677834734 40.374968763770774 0.0
    vertex 156.82305026538646 44.01277074371803 0.0
    vertex 157.28011760833098 43.62341974285218 0.0
  endloop
endfacet
facet normal 0.0 0.0 -1.0
  outer loop
    vertex 157.11408677834734 40.374968763770774 0.0
    vertex 157.28011760833098 43.62341974285218 0.0
    vertex 157.5034377792132 40.83203610671535 0.0
  endloop
endfacet
facet normal 0.0 0.0 -1.0
  outer loop
    vertex 157.5034377792132 40.83203610671535 0.0
    vertex 157.28011760833098 43.62341974285218 0.0
    vertex 157.6208393049807 43.12903782237589 0.0
  endloop
endfacet
facet normal 0.0 0.0 -1.0
  outer loop
    vertex 157.5034377792132 40.83203610671535 0.0
    vertex 157.6208393049807 43.12903782237589 0.0
    vertex 157.7612242331926 41.37430071187264 0.0
  endloop
endfacet
facet normal 0.0 0.0 -1.0
  outer loop
    vertex 157.7612242331926 41.37430071187264 0.0
    vertex 157.6208393049807 43.12903782237589 0.0
    vertex 157.82199573477803 42.563316293164874 0.0
  endloop
endfacet
facet normal 0.0 0.0 -1.0
  outer loop
    vertex 157.7612242331926 41.37430071187264 0.0
    vertex 157.82199573477803 42.563316293164874 0.0
    vertex 157.869878419459 41.96480814253583 0.0
  endloop
endfacet
facet normal 0.9968150094250954 0.0797485860993604 0.0
  outer loop
    vertex 157.82199573477803 42.563316293164874 0.0
    vertex 157.869878419459 41.96480814253583 7.6000000000000005
    vertex 157.869878419459 41.96480814253583 0.0
  endloop
endfacet
facet normal 0.9968150094250954 0.0797485860993604 0.0
  outer loop
    vertex 157.869878419459 41.96480814253583 7.6000000000000005
    vertex 157.82199573477803 42.563316293164874 0.0
    vertex 157.82199573477803 42.563316293164874 7.6000000000000005
  endloop
endfacet
facet normal 0.42934320323461816 0.903141414085434 0.0
  outer loop
    vertex 156.28078566022913 44.2705571976974 7.6000000000000005
    vertex 156.82305026538646 44.01277074371803 0.0
    vertex 156.28078566022913 44.2705571976974 0.0
  endloop
endfacet
facet normal 0.42934320323461816 0.903141414085434 0.0
  outer loop
    vertex 156.82305026538646 44.01277074371803 0.0
    vertex 156.28078566022913 44.2705571976974 7.6000000000000005
    vertex 156.82305026538646 44.01277074371803 7.6000000000000005
  endloop
endfacet
facet normal 0.6484638867321404 0.761245418773897 0.0
  outer loop
    vertex 156.82305026538646 44.01277074371803 7.6000000000000005
    vertex 157.28011760833098 43.62341974285218 0.0
    vertex 156.82305026538646 44.01277074371803 0.0
  endloop
endfacet
facet normal 0.6484638867321404 0.761245418773897 0.0
  outer loop
    vertex 157.28011760833098 43.62341974285218 0.0
    vertex 156.82305026538646 44.01277074371803 7.6000000000000005
    vertex 157.28011760833098 43.62341974285218 7.6000000000000005
  endloop
endfacet
facet normal 0.9422089087337753 0.33502592780665236 0.0
  outer loop
    vertex 157.6208393049807 43.12903782237589 0.0
    vertex 157.82199573477803 42.563316293164874 7.6000000000000005
    vertex 157.82199573477803 42.563316293164874 0.0
  endloop
endfacet
facet normal 0.9422089087337753 0.33502592780665236 0.0
  outer loop
    vertex 157.82199573477803 42.563316293164874 7.6000000000000005
    vertex 157.6208393049807 43.12903782237589 0.0
    vertex 157.6208393049807 43.12903782237589 7.6000000000000005
  endloop
endfacet
facet normal 0.8233928279860793 0.567471806190481 0.0
  outer loop
    vertex 157.28011760833098 43.62341974285218 0.0
    vertex 157.6208393049807 43.12903782237589 7.6000000000000005
    vertex 157.6208393049807 43.12903782237589 0.0
  endloop
endfacet
facet normal 0.8233928279860793 0.567471806190481 0.0
  outer loop
    vertex 157.6208393049807 43.12903782237589 7.6000000000000005
    vertex 157.28011760833098 43.62341974285218 0.0
    vertex 157.28011760833098 43.62341974285218 7.6000000000000005
  endloop
endfacet
facet normal -0.9834898145387909 0.1809634899598663 0.0
  outer loop
    vertex 153.38452917440438 42.79011862473395 7.6000000000000005
    vertex 153.27587498813793 42.19961119407077 0.0
    vertex 153.27587498813793 42.19961119407077 7.6000000000000005
  endloop
endfacet
facet normal -0.9834898145387909 0.1809634899598663 0.0
  outer loop
    vertex 153.27587498813793 42.19961119407077 0.0
    vertex 153.38452917440438 42.79011862473395 7.6000000000000005
    vertex 153.38452917440438 42.79011862473395 0.0
  endloop
endfacet
facet normal 0.9834898145387876 -0.18096348995988448 0.0
  outer loop
    vertex 157.869878419459 41.96480814253583 0.0
    vertex 157.7612242331926 41.37430071187264 7.6000000000000005
    vertex 157.7612242331926 41.37430071187264 0.0
  endloop
endfacet
facet normal 0.9834898145387876 -0.18096348995988448 0.0
  outer loop
    vertex 157.7612242331926 41.37430071187264 7.6000000000000005
    vertex 157.869878419459 41.96480814253583 0.0
    vertex 157.869878419459 41.96480814253583 7.6000000000000005
  endloop
endfacet
facet normal 0.9031414140854307 -0.4293432032346255 0.0
  outer loop
    vertex 157.7612242331926 41.37430071187264 0.0
    vertex 157.5034377792132 40.83203610671535 7.6000000000000005
    vertex 157.5034377792132 40.83203610671535 0.0
  endloop
endfacet
facet normal 0.9031414140854307 -0.4293432032346255 0.0
  outer loop
    vertex 157.5034377792132 40.83203610671535 7.6000000000000005
    vertex 157.7612242331926 41.37430071187264 0.0
    vertex 157.7612242331926 41.37430071187264 7.6000000000000005
  endloop
endfacet
facet normal -0.6484638867321366 -0.7612454187739003 -0.0
  outer loop
    vertex 154.32270314221051 40.15164859288856 7.6000000000000005
    vertex 153.86563579926596 40.54099959375442 0.0
    vertex 154.32270314221051 40.15164859288856 0.0
  endloop
endfacet
facet normal -0.6484638867321366 -0.7612454187739003 -0.0
  outer loop
    vertex 153.86563579926596 40.54099959375442 0.0
    vertex 154.32270314221051 40.15164859288856 7.6000000000000005
    vertex 153.86563579926596 40.54099959375442 7.6000000000000005
  endloop
endfacet
facet normal -0.9968150094250969 -0.07974858609934174 -0.0
  outer loop
    vertex 153.27587498813793 42.19961119407077 7.6000000000000005
    vertex 153.32375767281894 41.601103043441725 0.0
    vertex 153.32375767281894 41.601103043441725 7.6000000000000005
  endloop
endfacet
facet normal -0.9968150094250969 -0.07974858609934174 -0.0
  outer loop
    vertex 153.32375767281894 41.601103043441725 0.0
    vertex 153.27587498813793 42.19961119407077 7.6000000000000005
    vertex 153.27587498813793 42.19961119407077 0.0
  endloop
endfacet
facet normal -0.7612454187739042 0.648463886732132 0.0
  outer loop
    vertex 154.0316666292496 43.789450572835825 7.6000000000000005
    vertex 153.64231562838376 43.33238322989125 0.0
    vertex 153.64231562838376 43.33238322989125 7.6000000000000005
  endloop
endfacet
facet normal -0.7612454187739042 0.648463886732132 0.0
  outer loop
    vertex 153.64231562838376 43.33238322989125 0.0
    vertex 154.0316666292496 43.789450572835825 7.6000000000000005
    vertex 154.0316666292496 43.789450572835825 0.0
  endloop
endfacet
facet normal -0.5674718061904683 0.8233928279860883 0.0
  outer loop
    vertex 154.0316666292496 43.789450572835825 7.6000000000000005
    vertex 154.52604854972589 44.1301722694855 0.0
    vertex 154.0316666292496 43.789450572835825 0.0
  endloop
endfacet
facet normal -0.5674718061904683 0.8233928279860883 0.0
  outer loop
    vertex 154.52604854972589 44.1301722694855 0.0
    vertex 154.0316666292496 43.789450572835825 7.6000000000000005
    vertex 154.52604854972589 44.1301722694855 7.6000000000000005
  endloop
endfacet
facet normal -0.9031414140854307 0.4293432032346255 0.0
  outer loop
    vertex 153.64231562838376 43.33238322989125 7.6000000000000005
    vertex 153.38452917440438 42.79011862473395 0.0
    vertex 153.38452917440438 42.79011862473395 7.6000000000000005
  endloop
endfacet
facet normal -0.9031414140854307 0.4293432032346255 0.0
  outer loop
    vertex 153.38452917440438 42.79011862473395 0.0
    vertex 153.64231562838376 43.33238322989125 7.6000000000000005
    vertex 153.64231562838376 43.33238322989125 0.0
  endloop
endfacet
facet normal -0.4293432032346255 -0.9031414140854307 -0.0
  outer loop
    vertex 154.8649677473678 39.8938621389092 7.6000000000000005
    vertex 154.32270314221051 40.15164859288856 0.0
    vertex 154.8649677473678 39.8938621389092 0.0
  endloop
endfacet
facet normal -0.4293432032346255 -0.9031414140854307 -0.0
  outer loop
    vertex 154.32270314221051 40.15164859288856 0.0
    vertex 154.8649677473678 39.8938621389092 7.6000000000000005
    vertex 154.32270314221051 40.15164859288856 7.6000000000000005
  endloop
endfacet
facet normal -0.8233928279860793 -0.567471806190481 -0.0
  outer loop
    vertex 153.52491410261626 41.035381514230714 7.6000000000000005
    vertex 153.86563579926596 40.54099959375442 0.0
    vertex 153.86563579926596 40.54099959375442 7.6000000000000005
  endloop
endfacet
facet normal -0.8233928279860793 -0.567471806190481 -0.0
  outer loop
    vertex 153.86563579926596 40.54099959375442 0.0
    vertex 153.52491410261626 41.035381514230714 7.6000000000000005
    vertex 153.52491410261626 41.035381514230714 0.0
  endloop
endfacet
facet normal -0.07974858609935181 0.996815009425096 0.0
  outer loop
    vertex 155.0917700789369 44.33132869928283 7.6000000000000005
    vertex 155.69027822956593 44.37921138396384 0.0
    vertex 155.0917700789369 44.33132869928283 0.0
  endloop
endfacet
facet normal -0.07974858609935181 0.996815009425096 0.0
  outer loop
    vertex 155.69027822956593 44.37921138396384 0.0
    vertex 155.0917700789369 44.33132869928283 7.6000000000000005
    vertex 155.69027822956593 44.37921138396384 7.6000000000000005
  endloop
endfacet
facet normal -0.9422089087337743 -0.33502592780665535 -0.0
  outer loop
    vertex 153.32375767281894 41.601103043441725 7.6000000000000005
    vertex 153.52491410261626 41.035381514230714 0.0
    vertex 153.52491410261626 41.035381514230714 7.6000000000000005
  endloop
endfacet
facet normal -0.9422089087337743 -0.33502592780665535 -0.0
  outer loop
    vertex 153.52491410261626 41.035381514230714 0.0
    vertex 153.32375767281894 41.601103043441725 7.6000000000000005
    vertex 153.32375767281894 41.601103043441725 0.0
  endloop
endfacet
facet normal 0.0 0.0 1.0
  outer loop
    vertex 153.32375767281894 41.601103043441725 7.6000000000000005
    vertex 153.38452917440438 42.79011862473395 7.6000000000000005
    vertex 153.27587498813793 42.19961119407077 7.6000000000000005
  endloop
endfacet
facet normal 0.0 0.0 1.0
  outer loop
    vertex 153.38452917440438 42.79011862473395 7.6000000000000005
    vertex 153.32375767281894 41.601103043441725 7.6000000000000005
    vertex 153.52491410261626 41.035381514230714 7.6000000000000005
  endloop
endfacet
facet normal 0.0 0.0 1.0
  outer loop
    vertex 153.38452917440438 42.79011862473395 7.6000000000000005
    vertex 153.52491410261626 41.035381514230714 7.6000000000000005
    vertex 153.64231562838376 43.33238322989125 7.6000000000000005
  endloop
endfacet
facet normal 0.0 0.0 1.0
  outer loop
    vertex 153.64231562838376 43.33238322989125 7.6000000000000005
    vertex 153.52491410261626 41.035381514230714 7.6000000000000005
    vertex 153.86563579926596 40.54099959375442 7.6000000000000005
  endloop
endfacet
facet normal 0.0 0.0 1.0
  outer loop
    vertex 153.64231562838376 43.33238322989125 7.6000000000000005
    vertex 153.86563579926596 40.54099959375442 7.6000000000000005
    vertex 154.0316666292496 43.789450572835825 7.6000000000000005
  endloop
endfacet
facet normal 0.0 0.0 1.0
  outer loop
    vertex 154.0316666292496 43.789450572835825 7.6000000000000005
    vertex 153.86563579926596 40.54099959375442 7.6000000000000005
    vertex 154.32270314221051 40.15164859288856 7.6000000000000005
  endloop
endfacet
facet normal 0.0 0.0 1.0
  outer loop
    vertex 154.0316666292496 43.789450572835825 7.6000000000000005
    vertex 154.32270314221051 40.15164859288856 7.6000000000000005
    vertex 154.52604854972589 44.1301722694855 7.6000000000000005
  endloop
endfacet
facet normal 0.0 0.0 1.0
  outer loop
    vertex 154.52604854972589 44.1301722694855 7.6000000000000005
    vertex 154.32270314221051 40.15164859288856 7.6000000000000005
    vertex 154.8649677473678 39.8938621389092 7.6000000000000005
  endloop
endfacet
facet normal 0.0 0.0 1.0
  outer loop
    vertex 154.52604854972589 44.1301722694855 7.6000000000000005
    vertex 154.8649677473678 39.8938621389092 7.6000000000000005
    vertex 155.0917700789369 44.33132869928283 7.6000000000000005
  endloop
endfacet
facet normal 0.0 0.0 1.0
  outer loop
    vertex 155.0917700789369 44.33132869928283 7.6000000000000005
    vertex 154.8649677473678 39.8938621389092 7.6000000000000005
    vertex 155.455475178031 39.78520795264276 7.6000000000000005
  endloop
endfacet
facet normal 0.0 0.0 1.0
  outer loop
    vertex 155.0917700789369 44.33132869928283 7.6000000000000005
    vertex 155.455475178031 39.78520795264276 7.6000000000000005
    vertex 155.69027822956593 44.37921138396384 7.6000000000000005
  endloop
endfacet
facet normal 0.0 0.0 1.0
  outer loop
    vertex 155.69027822956593 44.37921138396384 7.6000000000000005
    vertex 155.455475178031 39.78520795264276 7.6000000000000005
    vertex 156.05398332866002 39.83309063732377 7.6000000000000005
  endloop
endfacet
facet normal 0.0 0.0 1.0
  outer loop
    vertex 155.69027822956593 44.37921138396384 7.6000000000000005
    vertex 156.05398332866002 39.83309063732377 7.6000000000000005
    vertex 156.28078566022913 44.2705571976974 7.6000000000000005
  endloop
endfacet
facet normal 0.0 0.0 1.0
  outer loop
    vertex 156.28078566022913 44.2705571976974 7.6000000000000005
    vertex 156.05398332866002 39.83309063732377 7.6000000000000005
    vertex 156.61970485787108 40.03424706712109 7.6000000000000005
  endloop
endfacet
facet normal 0.0 0.0 1.0
  outer loop
    vertex 156.28078566022913 44.2705571976974 7.6000000000000005
    vertex 156.61970485787108 40.03424706712109 7.6000000000000005
    vertex 156.82305026538646 44.01277074371803 7.6000000000000005
  endloop
endfacet
facet normal 0.0 0.0 1.0
  outer loop
    vertex 156.82305026538646 44.01277074371803 7.6000000000000005
    vertex 156.61970485787108 40.03424706712109 7.6000000000000005
    vertex 157.11408677834734 40.374968763770774 7.6000000000000005
  endloop
endfacet
facet normal 0.0 0.0 1.0
  outer loop
    vertex 156.82305026538646 44.01277074371803 7.6000000000000005
    vertex 157.11408677834734 40.374968763770774 7.6000000000000005
    vertex 157.28011760833098 43.62341974285218 7.6000000000000005
  endloop
endfacet
facet normal 0.0 0.0 1.0
  outer loop
    vertex 157.28011760833098 43.62341974285218 7.6000000000000005
    vertex 157.11408677834734 40.374968763770774 7.6000000000000005
    vertex 157.5034377792132 40.83203610671535 7.6000000000000005
  endloop
endfacet
facet normal 0.0 0.0 1.0
  outer loop
    vertex 157.28011760833098 43.62341974285218 7.6000000000000005
    vertex 157.5034377792132 40.83203610671535 7.6000000000000005
    vertex 157.6208393049807 43.12903782237589 7.6000000000000005
  endloop
endfacet
facet normal 0.0 0.0 1.0
  outer loop
    vertex 157.6208393049807 43.12903782237589 7.6000000000000005
    vertex 157.5034377792132 40.83203610671535 7.6000000000000005
    vertex 157.7612242331926 41.37430071187264 7.6000000000000005
  endloop
endfacet
facet normal 0.0 0.0 1.0
  outer loop
    vertex 157.6208393049807 43.12903782237589 7.6000000000000005
    vertex 157.7612242331926 41.37430071187264 7.6000000000000005
    vertex 157.82199573477803 42.563316293164874 7.6000000000000005
  endloop
endfacet
facet normal 0.0 0.0 1.0
  outer loop
    vertex 157.82199573477803 42.563316293164874 7.6000000000000005
    vertex 157.7612242331926 41.37430071187264 7.6000000000000005
    vertex 157.869878419459 41.96480814253583 7.6000000000000005
  endloop
endfacet
facet normal -0.3350259278066637 0.9422089087337713 0.0
  outer loop
    vertex 154.52604854972589 44.1301722694855 7.6000000000000005
    vertex 155.0917700789369 44.33132869928283 0.0
    vertex 154.52604854972589 44.1301722694855 0.0
  endloop
endfacet
facet normal -0.3350259278066637 0.9422089087337713 0.0
  outer loop
    vertex 155.0917700789369 44.33132869928283 0.0
    vertex 154.52604854972589 44.1301722694855 7.6000000000000005
    vertex 155.0917700789369 44.33132869928283 7.6000000000000005
  endloop
endfacet
facet normal 0.18096348995987374 0.9834898145387896 0.0
  outer loop
    vertex 155.69027822956593 44.37921138396384 7.6000000000000005
    vertex 156.28078566022913 44.2705571976974 0.0
    vertex 155.69027822956593 44.37921138396384 0.0
  endloop
endfacet
facet normal 0.18096348995987374 0.9834898145387896 0.0
  outer loop
    vertex 156.28078566022913 44.2705571976974 0.0
    vertex 155.69027822956593 44.37921138396384 7.6000000000000005
    vertex 156.28078566022913 44.2705571976974 7.6000000000000005
  endloop
endfacet
facet normal 0.7612454187739135 -0.6484638867321211 0.0
  outer loop
    vertex 157.5034377792132 40.83203610671535 0.0
    vertex 157.11408677834734 40.374968763770774 7.6000000000000005
    vertex 157.11408677834734 40.374968763770774 0.0
  endloop
endfacet
facet normal 0.7612454187739135 -0.6484638867321211 0.0
  outer loop
    vertex 157.11408677834734 40.374968763770774 7.6000000000000005
    vertex 157.5034377792132 40.83203610671535 0.0
    vertex 157.5034377792132 40.83203610671535 7.6000000000000005
  endloop
endfacet
facet normal 0.07974858609935181 -0.996815009425096 0.0
  outer loop
    vertex 156.05398332866002 39.83309063732377 7.6000000000000005
    vertex 155.455475178031 39.78520795264276 0.0
    vertex 156.05398332866002 39.83309063732377 0.0
  endloop
endfacet
facet normal 0.07974858609935181 -0.996815009425096 0.0
  outer loop
    vertex 155.455475178031 39.78520795264276 0.0
    vertex 156.05398332866002 39.83309063732377 7.6000000000000005
    vertex 155.455475178031 39.78520795264276 7.6000000000000005
  endloop
endfacet
facet normal -0.1809634899598771 -0.9834898145387891 -0.0
  outer loop
    vertex 155.455475178031 39.78520795264276 7.6000000000000005
    vertex 154.8649677473678 39.8938621389092 0.0
    vertex 155.455475178031 39.78520795264276 0.0
  endloop
endfacet
facet normal -0.1809634899598771 -0.9834898145387891 -0.0
  outer loop
    vertex 154.8649677473678 39.8938621389092 0.0
    vertex 155.455475178031 39.78520795264276 7.6000000000000005
    vertex 154.8649677473678 39.8938621389092 7.6000000000000005
  endloop
endfacet
facet normal 0.3350259278066435 -0.9422089087337785 0.0
  outer loop
    vertex 156.61970485787108 40.03424706712109 7.6000000000000005
    vertex 156.05398332866002 39.83309063732377 0.0
    vertex 156.61970485787108 40.03424706712109 0.0
  endloop
endfacet
facet normal 0.3350259278066435 -0.9422089087337785 0.0
  outer loop
    vertex 156.05398332866002 39.83309063732377 0.0
    vertex 156.61970485787108 40.03424706712109 7.6000000000000005
    vertex 156.05398332866002 39.83309063732377 7.6000000000000005
  endloop
endfacet
facet normal 0.5674718061904747 -0.8233928279860838 0.0
  outer loop
    vertex 157.11408677834734 40.374968763770774 7.6000000000000005
    vertex 156.61970485787108 40.03424706712109 0.0
    vertex 157.11408677834734 40.374968763770774 0.0
  endloop
endfacet
facet normal 0.5674718061904747 -0.8233928279860838 0.0
  outer loop
    vertex 156.61970485787108 40.03424706712109 0.0
    vertex 157.11408677834734 40.374968763770774 7.6000000000000005
    vertex 156.61970485787108 40.03424706712109 7.6000000000000005
  endloop
endfacet
endsolid Buggy
